<svg xmlns="http://www.w3.org/2000/svg" viewBox="0 0 200 200">
  <defs>
    <linearGradient id="turnaBg" x1="0%" y1="0%" x2="100%" y2="100%">
      <stop offset="0%" style="stop-color:#8a4fff;stop-opacity:1" />
      <stop offset="100%" style="stop-color:#6a3ae0;stop-opacity:1" />
    </linearGradient>
    
    <clipPath id="turnaClip">
      <path d="M50 100 
               Q80 60, 100 100 
               Q120 140, 150 100 
               Q130 50, 100 50 
               Q70 50, 50 100 Z"/>
    </clipPath>
  </defs>
  
  <!-- Arka plan -->
  <circle cx="100" cy="100" r="90" fill="url(#turnaBg)"/>
  
  <!-- Yapay Zeka Ağı Efekti -->
  <g clip-path="url(#turnaClip)" opacity="0.6">
    <g stroke="white" stroke-opacity="0.5" fill="none">
      <path d="M0 0 L200 200" stroke-dasharray="5,5"/>
      <path d="M200 0 L0 200" stroke-dasharray="5,5"/>
      <path d="M100 0 L100 200" stroke-dasharray="5,5"/>
      <path d="M0 100 L200 100" stroke-dasharray="5,5"/>
    </g>
  </g>
  
  <!-- Stilize Turna Silueti -->
  <path 
    d="M50 100 
       Q80 60, 100 100 
       Q120 140, 150 100 
       Q130 50, 100 50 
       Q70 50, 50 100 Z" 
    fill="white"
    stroke="white" 
    stroke-width="2"
  />
  
  <!-- Minimal Gövde ve Kanat -->
  <path 
    d="M100 120 
       L90 160 
       Q100 180, 110 160 Z" 
    fill="white"
  />
</svg>
